<?xml version="1.0" encoding="UTF-8"?>
<svg id="_レイヤー_1" data-name="レイヤー 1" xmlns="http://www.w3.org/2000/svg" xmlns:xlink="http://www.w3.org/1999/xlink" viewBox="0 0 240 240">
  <defs>
    <style>
      .cls-1 {
        fill: none;
      }

      .cls-2 {
        fill: #231815;
      }

      .cls-3 {
        fill: url(#_名称未設定グラデーション_28);
      }
    </style>
    <radialGradient id="_名称未設定グラデーション_28" data-name="名称未設定グラデーション 28" cx="120.21" cy="120" fx="120.21" fy="120" r="79.89" gradientUnits="userSpaceOnUse">
      <stop offset="0" stop-color="#fff"/>
      <stop offset="1" stop-color="#cc4493"/>
    </radialGradient>
  </defs>
  <path class="cls-3" d="M200,120c0,44.18-35.82,80-80,80-106.12-4.21-106.09-155.8,0-160,44.18,0,80,35.82,80,80Z"/>
  <rect class="cls-1" width="240" height="240"/>
  <g>
    <path class="cls-2" d="M71.75,132.48c-3.03,0-6.58-.59-8.99-2.05,0,0,1.34-5.44,1.34-5.44,2.85,1.4,7.17,3.02,10.21,1.76.72-.4.96-1.38.51-2.06-1.18-1.25-2.93-1.42-4.77-2.03-2.17-.6-4.07-1.39-5.54-2.82-2.64-2.56-2.29-7.63.82-9.58,1.72-1.18,4.18-1.78,7.38-1.78,2.81,0,6.15.47,8.61,1.54,0,0-1.34,5.44-1.34,5.44-2.8-1.31-6.84-2.28-9.73-1.33-.51.25-.77.65-.77,1.2.01.68.27,1.12.9,1.5,1.09.64,2.28.99,3.78,1.44,2.29.7,4.26,1.45,5.84,2.86,2.76,2.49,2.21,7.58-.83,9.52-1.74,1.22-4.21,1.82-7.41,1.82Z"/>
    <path class="cls-2" d="M88.74,132.48c-5.16.31-6.97-6.67-2.94-9.38,1.64-1.31,5.16-1.63,7.87-1.5.23-3.55-6.86-1.4-8.7-.45,0,0-.67-4.48-.67-4.48,3.52-1.6,8.85-1.96,12.37-.85,2.61.97,3.24,2.97,3.28,5.78,0,0,0,10.56,0,10.56h-5.95l-.06-1.92c-1.33,1.33-3.2,2.29-5.18,2.24ZM91.17,128.16c1.23.03,2.51-.6,2.5-1.92,0,0,0-1.28,0-1.28h-.77c-1.26,0-2.18.14-2.77.42-.99.38-1.19,1.82-.38,2.42.33.25.81.37,1.42.37Z"/>
    <path class="cls-2" d="M103.04,132.16v-16.64h5.82l.06,2.24h.06c1.91-3.13,7.18-3.69,8.67,0,0,0,.06,0,.06,0,1.88-2.81,6.74-3.6,8.83-1.07.75.99,1.12,2.63,1.12,4.91,0,0,0,10.56,0,10.56h-6.14v-9.6c-.03-1.15-.18-2.17-1.31-2.24-1.23.03-1.81,1.35-1.79,2.56,0,0,0,9.28,0,9.28h-6.14v-9.6c.15-3.45-3.23-2.56-3.1.32,0,0,0,9.28,0,9.28h-6.14Z"/>
    <path class="cls-2" d="M142.02,115.2c2.15,0,3.81.74,4.96,2.22,2.31,2.65,2.3,10.18,0,12.83-2.29,3.06-7.38,2.87-9.92-.02,0,0,0,8.64,0,8.64h-6.27v-23.36h5.95l.06,1.92c1.61-1.43,3.02-2.27,5.22-2.24ZM139.74,120c-1.5-.05-2.74,1.04-2.69,2.56.07.92-.22,3.13.34,3.9.83,1.52,3.5,1.65,4.45.22,1.28-1.91,1.1-6.84-2.1-6.69Z"/>
    <path class="cls-2" d="M151.46,132.16v-23.36h6.4v23.36h-6.4Z"/>
    <path class="cls-2" d="M170.21,132.48c-3.07,0-5.44-.75-7.1-2.24-3.3-2.67-3.3-9.91-.19-12.74,2.71-3.01,9.73-3.1,12.46-.11,1.97,1.76,2.51,5.48,2.06,8.37,0,0-13.31,0-13.31,0v-3.68h8.35l-.74,1.12c-.07-2.22-.28-3.9-2.5-4-2.19.1-2.43,1.79-2.5,4,.02,1.21-.22,3.42.83,4.11,2.06,1.43,6.16.4,8.38-.53,0,0,.64,4.48.64,4.48-1.8.82-4.27,1.23-6.4,1.22Z"/>
  </g>
</svg>